HIERARCHY
ROOT Hips
{
	OFFSET 0.000000 121.760803 0.000000
	CHANNELS 6 Xposition Yposition Zposition Xrotation Yrotation Zrotation 
	JOINT Spine
	{
		OFFSET 0.072000 7.257294 -0.789700
		CHANNELS 3 Xrotation Yrotation Zrotation
		JOINT Spine1
		{
			OFFSET 0.000000 12.508769 -0.658067
			CHANNELS 3 Xrotation Yrotation Zrotation
			JOINT Spine1_split
			{
				OFFSET 0.000000 12.508769 -0.658067
				CHANNELS 3 Xrotation Yrotation Zrotation
				JOINT Spine2
				{
					OFFSET 0.000000 12.508769 -0.658067
					CHANNELS 3 Xrotation Yrotation Zrotation
					JOINT Neck
					{
						OFFSET 0.000000 14.033295 7.520400
						CHANNELS 3 Xrotation Yrotation Zrotation
						JOINT Head
						{
							OFFSET 0.000000 8.198502 5.703100
							CHANNELS 3 Xrotation Yrotation Zrotation
							JOINT HeadTop_End
							{
								OFFSET 0.000000 17.760803 13.332701
								CHANNELS 3 Xrotation Yrotation Zrotation
								End Site
								{
									OFFSET 0.000000 0.000000 0.000000
								}
							}
						}
					}
					JOINT LeftShoulder
					{
						OFFSET 6.292450 5.785301 -0.669000
						CHANNELS 3 Xrotation Yrotation Zrotation
						JOINT LeftShoulder_split
						{
							OFFSET 6.292450 5.785301 -0.669000
							CHANNELS 3 Xrotation Yrotation Zrotation
							JOINT LeftArm
							{
								OFFSET 13.907140 -6.093903 1.965100
								CHANNELS 3 Xrotation Yrotation Zrotation
								JOINT LeftForeArm
								{
									OFFSET 34.140198 0.000000 0.000000
									CHANNELS 3 Xrotation Yrotation Zrotation
									JOINT LeftHand
									{
										OFFSET 40.960209 0.000000 0.000000
										CHANNELS 3 Xrotation Yrotation Zrotation
										JOINT LeftHandThumb1
										{
											OFFSET 10.006996 -7.170425 9.573125
											CHANNELS 3 Xrotation Yrotation Zrotation
											JOINT LeftHandThumb2
											{
												OFFSET 1.835007 -1.059448 1.059443
												CHANNELS 3 Xrotation Yrotation Zrotation
												JOINT LeftHandThumb3
												{
													OFFSET 2.112267 -1.219513 1.219518
													CHANNELS 3 Xrotation Yrotation Zrotation
													JOINT LeftHandThumb4
													{
														OFFSET 4.843811 -2.796570 2.796576
														CHANNELS 3 Xrotation Yrotation Zrotation
														End Site
														{
															OFFSET 0.000000 0.000000 0.000000
														}
													}
												}
											}
										}
										JOINT LeftHandIndex1
										{
											OFFSET 18.389847 -0.922348 4.596882
											CHANNELS 3 Xrotation Yrotation Zrotation
											JOINT LeftHandIndex2
											{
												OFFSET 4.711273 0.000000 0.000000
												CHANNELS 3 Xrotation Yrotation Zrotation
												JOINT LeftHandIndex3
												{
													OFFSET 2.886131 0.000000 0.000000
													CHANNELS 3 Xrotation Yrotation Zrotation
													JOINT LeftHandIndex4
													{
														OFFSET 6.145912 0.000000 0.000000
														CHANNELS 3 Xrotation Yrotation Zrotation
														End Site
														{
															OFFSET 0.000000 0.000000 0.000000
														}
													}
												}
											}
										}
										JOINT LeftHandMiddle1
										{
											OFFSET 18.013008 0.000000 0.000000
											CHANNELS 3 Xrotation Yrotation Zrotation
											JOINT LeftHandMiddle2
											{
												OFFSET 4.946693 0.000000 0.000000
												CHANNELS 3 Xrotation Yrotation Zrotation
												JOINT LeftHandMiddle3
												{
													OFFSET 3.342232 0.000000 0.000000
													CHANNELS 3 Xrotation Yrotation Zrotation
													JOINT LeftHandMiddle4
													{
														OFFSET 4.461754 0.000000 0.000000
														CHANNELS 3 Xrotation Yrotation Zrotation
														End Site
														{
															OFFSET 0.000000 0.000000 0.000000
														}
													}
												}
											}
										}
										JOINT LeftHandRing1
										{
											OFFSET 15.849892 -0.102921 -4.126150
											CHANNELS 3 Xrotation Yrotation Zrotation
											JOINT LeftHandRing2
											{
												OFFSET 3.527054 0.000000 0.000000
												CHANNELS 3 Xrotation Yrotation Zrotation
												JOINT LeftHandRing3
												{
													OFFSET 2.961098 0.000000 0.000000
													CHANNELS 3 Xrotation Yrotation Zrotation
													JOINT LeftHandRing4
													{
														OFFSET 4.927200 0.000000 0.000000
														CHANNELS 3 Xrotation Yrotation Zrotation
														End Site
														{
															OFFSET 0.000000 0.000000 0.000000
														}
													}
												}
											}
										}
										JOINT LeftHandPinky1
										{
											OFFSET 12.791824 -0.832031 -6.799156
											CHANNELS 3 Xrotation Yrotation Zrotation
											JOINT LeftHandPinky2
											{
												OFFSET 3.327133 0.000000 0.000000
												CHANNELS 3 Xrotation Yrotation Zrotation
												JOINT LeftHandPinky3
												{
													OFFSET 3.014900 0.000000 0.000000
													CHANNELS 3 Xrotation Yrotation Zrotation
													JOINT LeftHandPinky4
													{
														OFFSET 5.847786 0.000000 0.000000
														CHANNELS 3 Xrotation Yrotation Zrotation
														End Site
														{
															OFFSET 0.000000 0.000000 0.000000
														}
													}
												}
											}
										}
									}
								}
							}
						}
					}
					JOINT RightShoulder
					{
						OFFSET -6.292450 5.785301 -0.669000
						CHANNELS 3 Xrotation Yrotation Zrotation
						JOINT RightShoulder_split
						{
							OFFSET -6.292450 5.785301 -0.669000
							CHANNELS 3 Xrotation Yrotation Zrotation
							JOINT RightArm
							{
								OFFSET -13.907140 -6.093903 1.965100
								CHANNELS 3 Xrotation Yrotation Zrotation
								JOINT RightForeArm
								{
									OFFSET -34.140198 0.000000 0.000000
									CHANNELS 3 Xrotation Yrotation Zrotation
									JOINT RightHand
									{
										OFFSET -40.960209 0.000000 0.000000
										CHANNELS 3 Xrotation Yrotation Zrotation
										JOINT RightHandThumb1
										{
											OFFSET -10.007050 -7.170456 9.573117
											CHANNELS 3 Xrotation Yrotation Zrotation
											JOINT RightHandThumb2
											{
												OFFSET -1.835007 -1.059448 1.059443
												CHANNELS 3 Xrotation Yrotation Zrotation
												JOINT RightHandThumb3
												{
													OFFSET -2.112267 -1.219513 1.219518
													CHANNELS 3 Xrotation Yrotation Zrotation
													JOINT RightHandThumb4
													{
														OFFSET -4.843834 -2.796585 2.796590
														CHANNELS 3 Xrotation Yrotation Zrotation
														End Site
														{
															OFFSET 0.000000 0.000000 0.000000
														}
													}
												}
											}
										}
										JOINT RightHandIndex1
										{
											OFFSET -18.389870 -0.922424 4.596786
											CHANNELS 3 Xrotation Yrotation Zrotation
											JOINT RightHandIndex2
											{
												OFFSET -4.711273 0.000000 0.000000
												CHANNELS 3 Xrotation Yrotation Zrotation
												JOINT RightHandIndex3
												{
													OFFSET -2.886131 0.000000 0.000000
													CHANNELS 3 Xrotation Yrotation Zrotation
													JOINT RightHandIndex4
													{
														OFFSET -6.145920 0.000000 0.000000
														CHANNELS 3 Xrotation Yrotation Zrotation
														End Site
														{
															OFFSET 0.000000 0.000000 0.000000
														}
													}
												}
											}
										}
										JOINT RightHandMiddle1
										{
											OFFSET -18.013008 0.000000 0.000000
											CHANNELS 3 Xrotation Yrotation Zrotation
											JOINT RightHandMiddle2
											{
												OFFSET -4.946693 0.000000 0.000000
												CHANNELS 3 Xrotation Yrotation Zrotation
												JOINT RightHandMiddle3
												{
													OFFSET -3.342232 0.000000 0.000000
													CHANNELS 3 Xrotation Yrotation Zrotation
													JOINT RightHandMiddle4
													{
														OFFSET -4.461754 0.000000 0.000000
														CHANNELS 3 Xrotation Yrotation Zrotation
														End Site
														{
															OFFSET 0.000000 0.000000 0.000000
														}
													}
												}
											}
										}
										JOINT RightHandRing1
										{
											OFFSET -15.849876 -0.102936 -4.126237
											CHANNELS 3 Xrotation Yrotation Zrotation
											JOINT RightHandRing2
											{
												OFFSET -3.527054 0.000000 0.000000
												CHANNELS 3 Xrotation Yrotation Zrotation
												JOINT RightHandRing3
												{
													OFFSET -2.961098 0.000000 0.000000
													CHANNELS 3 Xrotation Yrotation Zrotation
													JOINT RightHandRing4
													{
														OFFSET -4.927200 0.000000 0.000000
														CHANNELS 3 Xrotation Yrotation Zrotation
														End Site
														{
															OFFSET 0.000000 0.000000 0.000000
														}
													}
												}
											}
										}
										JOINT RightHandPinky1
										{
											OFFSET -12.791786 -0.832077 -6.799222
											CHANNELS 3 Xrotation Yrotation Zrotation
											JOINT RightHandPinky2
											{
												OFFSET -3.327133 0.000000 0.000000
												CHANNELS 3 Xrotation Yrotation Zrotation
												JOINT RightHandPinky3
												{
													OFFSET -3.014900 0.000000 0.000000
													CHANNELS 3 Xrotation Yrotation Zrotation
													JOINT RightHandPinky4
													{
														OFFSET -5.847786 0.000000 0.000000
														CHANNELS 3 Xrotation Yrotation Zrotation
														End Site
														{
															OFFSET 0.000000 0.000000 0.000000
														}
													}
												}
											}
										}
									}
								}
							}
						}
					}
				}
			}
		}
	}
	JOINT LeftUpLeg
	{
		OFFSET 13.026900 -6.336304 -1.092800
		CHANNELS 3 Xrotation Yrotation Zrotation
		JOINT LeftLeg
		{
			OFFSET 0.524474 -46.096886 9.782700
			CHANNELS 3 Xrotation Yrotation Zrotation
			JOINT LeftFoot
			{
				OFFSET -0.524474 -53.427422 -12.948200
				CHANNELS 3 Xrotation Yrotation Zrotation
				JOINT LeftToeBase
				{
					OFFSET 0.192200 -14.009700 16.364100
					CHANNELS 3 Xrotation Yrotation Zrotation
					JOINT LeftToe_End
					{
						OFFSET -1.784700 -0.561700 9.474800
						CHANNELS 3 Xrotation Yrotation Zrotation
						End Site
						{
							OFFSET 0.000000 0.000000 0.000000
						}
					}
				}
			}
		}
	}
	JOINT RightUpLeg
	{
		OFFSET -12.883000 -6.336304 -1.092800
		CHANNELS 3 Xrotation Yrotation Zrotation
		JOINT RightLeg
		{
			OFFSET -0.524587 -46.096825 9.782800
			CHANNELS 3 Xrotation Yrotation Zrotation
			JOINT RightFoot
			{
				OFFSET 0.524587 -53.427383 -12.948300
				CHANNELS 3 Xrotation Yrotation Zrotation
				JOINT RightToeBase
				{
					OFFSET -0.192200 -14.009700 16.364100
					CHANNELS 3 Xrotation Yrotation Zrotation
					JOINT RightToe_End
					{
						OFFSET 1.784700 -0.561700 9.474800
						CHANNELS 3 Xrotation Yrotation Zrotation
						End Site
						{
							OFFSET 0.000000 0.000000 0.000000
						}
					}
				}
			}
		}
	}
}
MOTION
Frames: 5
Frame Time: 0.016667
0.362356 88.314919 -6.202660 -11.642323 4.055778 0.367166 23.956559 0.214647 0.753245 13.992114 -0.012110 0.874928 0.000000 0.000000 0.000000 13.993083 -0.019272 0.870006 17.101284 -1.158556 -1.120069 -9.419535 -3.200686 0.179589 -0.000002 0.000000 -0.000000 1.274355 -20.464772 -8.784597 0.000000 0.000000 0.000000 -24.361975 0.125575 -58.409551 -134.037217 -77.572432 -130.766376 -10.954480 -21.976306 17.417631 20.303033 9.934871 -19.709482 3.939287 33.659493 6.068793 -0.000001 0.000007 0.000001 -0.000000 0.000004 -0.000001 11.348461 7.907826 -58.203689 11.226037 12.103226 -91.045582 0.000001 0.000003 0.000001 0.000000 0.000000 0.000000 -3.306146 14.721235 -56.170168 18.751034 6.507086 -95.555576 0.000017 -0.000009 0.000015 0.000000 0.000001 0.000000 -8.496635 16.099246 -73.492221 10.309621 4.265381 -84.428364 -0.000000 0.000006 -0.000003 -0.000000 0.000000 0.000000 -15.187837 25.469007 -80.134054 11.543892 -3.632260 -77.864088 -0.000001 0.000007 0.000001 -0.000001 0.000001 -0.000000 4.281749 6.062522 24.486795 0.000000 0.000000 0.000000 -20.183598 30.544005 38.966933 -101.168571 66.637409 94.218642 -10.108809 25.059858 -19.829303 9.450198 -8.378777 2.091206 9.478095 -37.583027 5.312505 -0.000001 -0.000009 -0.000000 0.000000 0.000001 -0.000000 9.382239 -23.801865 56.987188 11.353621 -12.107960 91.751393 0.000000 -0.000012 0.000001 0.000001 0.000000 0.000001 -6.258892 -19.691613 58.403192 17.354307 -6.618609 88.873363 0.000004 0.000001 -0.000000 0.000002 0.000000 0.000003 -12.782200 -20.150851 66.716072 10.303213 -4.268423 84.398284 -0.000002 0.000010 0.000005 -0.000001 0.000001 0.000002 -20.835279 -25.749922 77.824296 11.580049 3.626347 78.017324 0.000006 0.000007 0.000006 -0.000001 0.000001 -0.000002 -36.481447 -4.410245 14.890485 70.676257 -0.753485 0.313251 -22.002078 -3.152960 -12.702868 -0.000107 -0.000006 0.000002 0.000000 0.000000 0.000000 -32.734474 -4.414336 -20.443769 71.526458 0.127618 -0.538764 -25.626912 -2.277609 12.374382 -0.000023 -0.000000 0.000002 0.000000 -0.000002 -0.000000 
0.315598 88.809776 -5.899590 -12.232456 4.083949 0.330691 23.831264 0.208349 0.758310 13.805197 -0.026556 0.877420 0.000000 0.000000 0.000000 13.806109 -0.034361 0.873753 16.072145 -1.248017 -1.155620 -9.382872 -3.306537 0.444387 -0.000003 0.000000 -0.000000 1.202829 -20.287489 -9.383894 0.000000 0.000000 0.000000 -23.683029 -0.501258 -58.145032 -129.876525 -77.684577 -126.405819 -10.999869 -21.654338 17.436764 20.302782 9.934926 -19.709102 3.939277 33.659473 6.068795 -0.000003 0.000012 -0.000001 -0.000001 -0.000000 -0.000001 11.348441 7.907816 -58.203682 11.226482 12.103491 -91.045609 0.000002 0.000001 0.000007 -0.000001 0.000000 -0.000002 -3.306162 14.721252 -56.170185 18.751079 6.507073 -95.555562 0.000018 -0.000007 0.000013 0.000000 -0.000001 0.000002 -8.496667 16.099225 -73.492207 10.309642 4.265580 -84.428399 -0.000001 0.000006 -0.000008 -0.000000 0.000000 -0.000001 -15.187873 25.468978 -80.134054 11.543895 -3.632244 -77.864068 0.000002 0.000008 -0.000001 0.000001 -0.000000 0.000001 4.360482 5.935276 25.053790 0.000000 0.000000 0.000000 -19.084838 29.887675 38.977250 -103.118214 67.822850 95.667154 -10.145668 25.283439 -19.500497 9.446304 -8.364345 2.093534 9.477964 -37.583068 5.312454 -0.000001 -0.000004 0.000001 -0.000000 0.000001 0.000000 9.382245 -23.801889 56.987181 11.353652 -12.108293 91.751413 0.000000 -0.000011 -0.000007 -0.000000 0.000000 -0.000002 -6.258507 -19.691526 58.403226 17.354327 -6.618598 88.873363 0.000003 0.000000 -0.000001 -0.000000 0.000000 0.000001 -12.782159 -20.150882 66.716072 10.303214 -4.268399 84.398291 -0.000003 0.000011 0.000005 0.000003 0.000001 0.000000 -20.835251 -25.749936 77.824309 11.580027 3.626346 78.017358 0.000008 0.000008 0.000003 0.000003 0.000001 -0.000000 -35.136573 -4.424103 14.904118 70.004965 -0.728189 0.313271 -22.074523 -3.018126 -12.754407 -0.000107 -0.000007 0.000002 0.000000 0.000000 -0.000000 -31.413078 -4.754990 -20.263185 70.788477 0.144888 -0.531369 -25.666650 -2.340484 12.307351 -0.000023 0.000002 0.000002 0.000000 0.000000 0.000000 
0.247133 89.282211 -5.609716 -12.399367 4.118899 0.331442 23.645377 0.184969 0.755135 13.485203 -0.074091 0.867700 0.000000 0.000000 0.000000 13.486080 -0.083625 0.864977 15.039846 -1.249821 -1.288810 -9.417304 -3.318418 0.602192 0.000001 0.000000 -0.000000 1.157240 -20.150257 -9.778059 0.000000 0.000000 0.000000 -22.947103 -1.113757 -58.002916 -128.515801 -78.463827 -124.614588 -11.059290 -21.593652 17.251456 20.302560 9.934954 -19.708711 3.939311 33.659517 6.068750 -0.000002 0.000008 0.000001 0.000002 0.000004 -0.000001 11.348453 7.907814 -58.203689 11.226860 12.103742 -91.045609 0.000002 0.000001 0.000008 -0.000001 -0.000000 -0.000001 -3.306162 14.721243 -56.170171 18.751079 6.507087 -95.555569 0.000016 -0.000009 0.000014 -0.000000 0.000000 -0.000000 -8.496665 16.099256 -73.492187 10.309655 4.265813 -84.428460 -0.000001 0.000008 -0.000004 -0.000001 0.000000 -0.000002 -15.187878 25.468985 -80.134040 11.543926 -3.632269 -77.864088 -0.000000 0.000007 -0.000003 -0.000000 -0.000001 -0.000001 4.416302 5.793506 25.390709 0.000000 0.000000 0.000000 -17.739863 29.670178 39.116750 -104.281614 68.988640 96.225973 -10.264602 25.068406 -18.893399 9.441724 -8.346813 2.096356 9.477881 -37.583116 5.312409 -0.000001 -0.000004 -0.000000 0.000000 -0.000000 -0.000000 9.382249 -23.801896 56.987195 11.353701 -12.108557 91.751393 -0.000001 -0.000011 -0.000006 -0.000000 0.000000 0.000001 -6.258172 -19.691425 58.403261 17.354307 -6.618616 88.873356 0.000004 0.000001 0.000000 -0.000000 0.000000 0.000001 -12.782178 -20.150861 66.716072 10.303217 -4.268422 84.398291 -0.000002 0.000011 0.000007 -0.000001 -0.000001 -0.000001 -20.835273 -25.749936 77.824282 11.580043 3.626353 78.017358 0.000009 0.000007 0.000006 -0.000005 -0.000000 -0.000000 -34.275184 -4.408605 14.871842 69.325238 -0.697882 0.312724 -22.082241 -2.904654 -12.809962 -0.000107 -0.000007 0.000002 0.000000 0.000000 -0.000000 -30.591608 -5.022969 -20.117330 70.105608 0.134134 -0.524935 -25.678958 -2.403583 12.241780 -0.000023 0.000003 0.000002 -0.000000 0.000002 0.000000 
0.162328 89.749054 -5.311701 -12.414422 4.157866 0.355579 23.415138 0.139998 0.752834 13.067822 -0.162274 0.825651 0.000000 0.000000 0.000000 13.068605 -0.171246 0.822490 13.978629 -1.216190 -1.482818 -9.588732 -3.290706 0.698248 -0.000001 -0.000000 -0.000000 1.128239 -20.026953 -10.044960 0.000000 0.000000 0.000000 -22.214340 -1.700943 -57.924615 -130.356947 -79.992341 -125.863611 -11.142034 -21.528959 16.750351 20.302387 9.935017 -19.708378 3.939276 33.659490 6.068770 -0.000003 0.000008 0.000001 0.000001 -0.000005 0.000001 11.348435 7.907821 -58.203703 11.227270 12.103999 -91.045663 -0.000001 0.000001 0.000007 -0.000000 0.000002 -0.000001 -3.306162 14.721235 -56.170198 18.751052 6.507085 -95.555576 0.000016 -0.000007 0.000013 0.000000 -0.000000 -0.000003 -8.496642 16.099241 -73.492234 10.309674 4.266073 -84.428487 -0.000002 0.000007 -0.000001 -0.000000 0.000000 0.000002 -15.187855 25.468995 -80.134088 11.543901 -3.632245 -77.864116 -0.000001 0.000008 -0.000002 -0.000001 -0.000000 -0.000001 4.462494 5.633521 25.560928 0.000000 0.000000 0.000000 -16.203657 29.709093 39.388198 -105.211865 70.240791 96.452079 -10.509742 24.499112 -18.061370 9.436413 -8.325843 2.099705 9.477765 -37.583147 5.312396 -0.000001 -0.000004 0.000001 0.000000 0.000007 -0.000000 9.382277 -23.801879 56.987185 11.353732 -12.108751 91.751406 0.000000 -0.000011 -0.000006 0.000002 0.000001 -0.000002 -6.257880 -19.691341 58.403302 17.354327 -6.618605 88.873363 0.000005 0.000001 0.000001 0.000001 -0.000000 0.000001 -12.782147 -20.150880 66.716065 10.303216 -4.268411 84.398291 -0.000000 0.000011 0.000004 0.000000 -0.000001 0.000001 -20.835258 -25.749926 77.824282 11.580030 3.626335 78.017365 0.000007 0.000005 0.000005 -0.000004 -0.000001 -0.000003 -33.582544 -4.348971 14.839785 68.630847 -0.694209 0.311724 -22.067108 -2.810361 -12.852551 -0.000107 -0.000006 0.000002 0.000000 0.000000 -0.000000 -29.946804 -5.282432 -19.998133 69.441318 0.140045 -0.518746 -25.691483 -2.472609 12.155648 -0.000023 0.000003 0.000002 -0.000000 0.000002 0.000000 
0.073987 90.235733 -5.017530 -12.535451 4.164728 0.376118 23.210004 0.101589 0.737292 12.703015 -0.226610 0.772105 0.000000 0.000000 0.000000 12.703655 -0.233556 0.766654 12.861715 -1.200976 -1.613198 -9.877430 -3.291000 0.800853 -0.000002 -0.000000 0.000000 1.104421 -19.890667 -10.278940 0.000000 0.000000 0.000000 -21.196847 -2.412182 -57.702039 -130.960299 -81.096202 -125.841413 -11.225789 -21.448467 16.230124 20.302186 9.935057 -19.708024 3.939283 33.659490 6.068772 -0.000001 0.000008 0.000002 0.000002 0.000000 0.000000 11.348422 7.907821 -58.203676 11.227630 12.104235 -91.045663 0.000003 0.000003 0.000004 -0.000001 -0.000000 -0.000003 -3.306167 14.721231 -56.170164 18.751079 6.507056 -95.555569 0.000017 -0.000008 0.000011 0.000000 0.000001 -0.000001 -8.496673 16.099227 -73.492221 10.309680 4.266385 -84.428576 -0.000001 0.000007 -0.000002 -0.000000 0.000000 -0.000000 -15.187882 25.468975 -80.134040 11.543907 -3.632262 -77.864075 -0.000000 0.000007 -0.000003 0.000001 0.000000 -0.000002 4.503875 5.478726 25.672279 0.000000 0.000000 0.000000 -14.594897 29.842118 39.506149 -105.759038 71.476810 96.313283 -10.676533 24.075059 -17.568910 9.430490 -8.302012 2.103793 9.477674 -37.583208 5.312381 -0.000001 -0.000008 0.000000 0.000000 -0.000001 0.000001 9.382245 -23.801865 56.987195 11.353722 -12.108898 91.751400 -0.000001 -0.000011 -0.000001 0.000000 -0.000000 0.000003 -6.257779 -19.691328 58.403322 17.354327 -6.618619 88.873363 0.000004 0.000001 -0.000001 -0.000002 -0.000001 -0.000004 -12.782163 -20.150871 66.716079 10.303231 -4.268402 84.398291 -0.000001 0.000012 0.000007 -0.000000 -0.000001 -0.000003 -20.835268 -25.749928 77.824296 11.580036 3.626325 78.017351 0.000004 0.000006 0.000008 0.000000 -0.000001 -0.000000 -32.754292 -4.257914 14.841472 67.901882 -0.690620 0.310425 -22.047041 -2.722773 -12.894274 -0.000107 -0.000006 0.000002 -0.000000 0.000001 0.000000 -29.174214 -5.524400 -19.840380 68.739775 0.148496 -0.511936 -25.686518 -2.549273 12.062163 -0.000023 0.000002 0.000002 -0.000000 -0.000000 -0.000000 
